<svg width="27" height="27" viewBox="0 0 27 27" fill="none" xmlns="http://www.w3.org/2000/svg">
<path d="M3.84659 18.1534C3.43182 18.1534 3.0554 18.0753 2.71733 17.919C2.37926 17.7599 2.1108 17.5312 1.91193 17.233C1.71307 16.9318 1.61364 16.5682 1.61364 16.142C1.61364 15.767 1.6875 15.4631 1.83523 15.2301C1.98295 14.9943 2.1804 14.8097 2.42756 14.6761C2.67472 14.5426 2.94744 14.4432 3.24574 14.3778C3.54688 14.3097 3.84943 14.2557 4.15341 14.2159C4.55114 14.1648 4.87358 14.1264 5.12074 14.1009C5.37074 14.0724 5.55256 14.0256 5.66619 13.9602C5.78267 13.8949 5.84091 13.7812 5.84091 13.6193V13.5852C5.84091 13.1648 5.72585 12.8381 5.49574 12.6051C5.26847 12.3722 4.9233 12.2557 4.46023 12.2557C3.98011 12.2557 3.60369 12.3608 3.33097 12.571C3.05824 12.7812 2.86648 13.0057 2.75568 13.2443L1.80114 12.9034C1.97159 12.5057 2.19886 12.196 2.48295 11.9744C2.76989 11.75 3.08239 11.5937 3.42045 11.5057C3.76136 11.4148 4.09659 11.3693 4.42614 11.3693C4.63636 11.3693 4.87784 11.3949 5.15057 11.446C5.42614 11.4943 5.69176 11.5952 5.94744 11.7486C6.20597 11.902 6.42045 12.1335 6.59091 12.4432C6.76136 12.7528 6.84659 13.1676 6.84659 13.6875V18H5.84091V17.1136H5.78977C5.72159 17.2557 5.60795 17.4077 5.44886 17.5696C5.28977 17.7315 5.07813 17.8693 4.81392 17.983C4.54972 18.0966 4.22727 18.1534 3.84659 18.1534ZM4 17.25C4.39773 17.25 4.73295 17.1719 5.00568 17.0156C5.28125 16.8594 5.48864 16.6577 5.62784 16.4105C5.76989 16.1634 5.84091 15.9034 5.84091 15.6307V14.7102C5.7983 14.7614 5.70455 14.8082 5.55966 14.8509C5.41761 14.8906 5.25284 14.9261 5.06534 14.9574C4.88068 14.9858 4.70028 15.0114 4.52415 15.0341C4.35085 15.054 4.21023 15.071 4.10227 15.0852C3.84091 15.1193 3.59659 15.1747 3.36932 15.2514C3.14489 15.3253 2.96307 15.4375 2.82386 15.5881C2.6875 15.7358 2.61932 15.9375 2.61932 16.1932C2.61932 16.5426 2.74858 16.8068 3.0071 16.9858C3.26847 17.1619 3.59943 17.25 4 17.25ZM13.3185 12.9205L12.4151 13.1761C12.3583 13.0256 12.2745 12.8793 12.1637 12.7372C12.0558 12.5923 11.908 12.473 11.7205 12.3793C11.533 12.2855 11.293 12.2386 11.0004 12.2386C10.5998 12.2386 10.266 12.331 9.99893 12.5156C9.73473 12.6974 9.60263 12.929 9.60263 13.2102C9.60263 13.4602 9.69354 13.6577 9.87536 13.8026C10.0572 13.9474 10.3413 14.0682 10.7276 14.1648L11.6992 14.4034C12.2844 14.5455 12.7205 14.7628 13.0075 15.0554C13.2944 15.3452 13.4379 15.7187 13.4379 16.1761C13.4379 16.5511 13.3299 16.8864 13.114 17.1818C12.9009 17.4773 12.6026 17.7102 12.2191 17.8807C11.8356 18.0511 11.3896 18.1364 10.881 18.1364C10.2134 18.1364 9.66087 17.9915 9.22337 17.7017C8.78587 17.4119 8.50888 16.9886 8.3924 16.4318L9.34695 16.1932C9.43786 16.5455 9.60973 16.8097 9.86257 16.9858C10.1183 17.1619 10.4521 17.25 10.864 17.25C11.3327 17.25 11.7049 17.1506 11.9805 16.9517C12.2589 16.75 12.3981 16.5085 12.3981 16.2273C12.3981 16 12.3185 15.8097 12.1594 15.6562C12.0004 15.5 11.756 15.3835 11.4265 15.3068L10.3356 15.0511C9.73615 14.9091 9.29581 14.6889 9.01456 14.3906C8.73615 14.0895 8.59695 13.7131 8.59695 13.2614C8.59695 12.892 8.70064 12.5653 8.90803 12.2812C9.11825 11.9972 9.40376 11.7741 9.76456 11.6122C10.1282 11.4503 10.5401 11.3693 11.0004 11.3693C11.6481 11.3693 12.1566 11.5114 12.5259 11.7955C12.8981 12.0795 13.1623 12.4545 13.3185 12.9205ZM17.4233 18.1364C16.8778 18.1364 16.3963 17.9986 15.9787 17.723C15.5611 17.4446 15.2344 17.0526 14.9986 16.5469C14.7628 16.0384 14.6449 15.4375 14.6449 14.7443C14.6449 14.0568 14.7628 13.4602 14.9986 12.9545C15.2344 12.4489 15.5625 12.0582 15.983 11.7827C16.4034 11.5071 16.8892 11.3693 17.4403 11.3693C17.8665 11.3693 18.2031 11.4403 18.4503 11.5824C18.7003 11.7216 18.8906 11.8807 19.0213 12.0597C19.1548 12.2358 19.2585 12.3807 19.3324 12.4943H19.4176V9.27273H20.4233V18H19.4517V16.9943H19.3324C19.2585 17.1136 19.1534 17.2642 19.017 17.446C18.8807 17.625 18.6861 17.7855 18.4332 17.9276C18.1804 18.0668 17.8438 18.1364 17.4233 18.1364ZM17.5597 17.233C17.9631 17.233 18.304 17.1278 18.5824 16.9176C18.8608 16.7045 19.0724 16.4105 19.2173 16.0355C19.3622 15.6577 19.4347 15.2216 19.4347 14.7273C19.4347 14.2386 19.3636 13.8111 19.2216 13.4446C19.0795 13.0753 18.8693 12.7884 18.5909 12.5838C18.3125 12.3764 17.9688 12.2727 17.5597 12.2727C17.1335 12.2727 16.7784 12.3821 16.4943 12.6009C16.2131 12.8168 16.0014 13.1108 15.8594 13.483C15.7202 13.8523 15.6506 14.267 15.6506 14.7273C15.6506 15.1932 15.7216 15.6165 15.8636 15.9972C16.0085 16.375 16.2216 16.6761 16.5028 16.9006C16.7869 17.1222 17.1392 17.233 17.5597 17.233ZM25.3196 11.4545V12.3068H21.7912V11.4545H25.3196ZM22.848 18V10.5511C22.848 10.1761 22.9361 9.86364 23.1122 9.61364C23.2884 9.36364 23.517 9.17614 23.7983 9.05114C24.0795 8.92614 24.3764 8.86364 24.6889 8.86364C24.9361 8.86364 25.1378 8.88352 25.294 8.9233C25.4503 8.96307 25.5668 9 25.6435 9.03409L25.3537 9.90341C25.3026 9.88636 25.2315 9.86506 25.1406 9.83949C25.0526 9.81392 24.9361 9.80114 24.7912 9.80114C24.4588 9.80114 24.2188 9.88494 24.071 10.0526C23.9261 10.2202 23.8537 10.4659 23.8537 10.7898V18H22.848Z" fill="black"/>
</svg>
